<?xml version="1.0" encoding="UTF-8"?>
<svg id="Layer_1" xmlns="http://www.w3.org/2000/svg" version="1.1" viewBox="0 0 24 24">
  <!-- Generator: Adobe Illustrator 29.8.2, SVG Export Plug-In . SVG Version: 2.1.1 Build 3)  -->
  <defs>
    <style>
      .st0 {
        fill: #ede369;
      }

      .st1 {
        fill: #fff;
      }

      .st2 {
        fill: #eab24e;
      }

      .st3 {
        fill: #bc3500;
      }

      .st4 {
        fill: #deef95;
      }

      .st5 {
        fill: #db5e00;
      }

      .st6 {
        fill: #f3ffcf;
      }

      .st7 {
        fill: #e07b28;
      }
    </style>
  </defs>
  <path class="st5" d="M13.02,3.86c-3.42,1.21-7.11.87-10.67,1.12l.8-1.08c1.41-1.53,3.17-2.72,5.18-3.33.32-.1.93-.33,1.21-.16l3.49,3.45ZM9.24,4.34l-2.61.08-1.73.24,2.85-.08,1.48-.24Z"/>
  <path class="st2" d="M4.91,21.59c-.07.09-.9-.62-1-.72-1.81-1.61-3.05-3.9-3.63-6.24l3.47-3.63c.1,0,.45,1.31.5,1.51.73,2.95.51,6.07.66,9.08ZM4.59,18.86l-.08-3.09-.24-1.4.08,2.37.24,2.13Z"/>
  <path class="st4" d="M21.68,19.02c-1.22,1.72-3.04,3.21-5,4.02-.4.17-1.57.6-1.95.62-.12,0-.22.02-.31-.07l-3.49-3.41c3.44-1.23,7.15-.93,10.75-1.16ZM19.11,19.34l-3.73.16-1.4.24,3.41-.16,1.73-.24Z"/>
  <path class="st1" d="M20.08,12.93c-.14-.68-.39-1.33-.52-2-.35-1.73-.4-3.58-.44-5.33-.02-1.06.02-2.12,0-3.17.05-.06.53.34.6.4,1.4,1.19,2.58,2.79,3.29,4.49.19.45.76,1.81.53,2.21-1.14.9-2.09,2.42-3.21,3.29-.08.06-.1.16-.24.12ZM19.68,9.72l-.16-3.57-.16-1.24c-.05,1.33.06,2.65.16,3.97l.16.84Z"/>
  <path class="st3" d="M18.3,1.79l.14,5.12c-2.24-1.05-4.09-2.72-5.86-4.41-.61-.59-1.68-1.53-2.17-2.17-.06-.08-.16-.1-.12-.24,2.8-.33,5.6.24,8.01,1.7ZM16.07,5.14l-.48-.52-2.57-2.12c.77.83,1.67,1.68,2.58,2.36.14.1.3.28.47.29Z"/>
  <path class="st7" d="M6.92,5.47c-1.42,3.32-4.32,5.54-6.64,8.16-.05.05,0,.15-.18.1-.23-2.05-.06-4.02.66-5.96.14-.37.74-1.77.98-1.99.12-.12.15-.14.32-.16.61-.08,1.44.03,2.09,0,.17,0,.33-.08.48-.08.77-.02,1.53.03,2.29-.08ZM2.42,11c.75-.66,1.46-1.42,2.08-2.21.2-.25.45-.55.56-.84l-1.73,1.84-.92,1.2Z"/>
  <path class="st0" d="M13.74,23.91c-2.14.24-4.34-.02-6.34-.84-.31-.13-1.56-.72-1.73-.92-.1-.11-.1-.13-.12-.28-.16-1.17.05-2.85,0-4.1,0-.23-.11-.44-.08-.68,3.29,1.49,5.75,4.32,8.26,6.82ZM10.85,21.43l-.8-.84-2.49-1.96c.76.71,1.53,1.45,2.33,2.13.28.24.62.56.96.68Z"/>
  <path class="st6" d="M17.11,18.54c.78-2.11,2.46-3.89,3.97-5.54.89-.96,1.83-1.89,2.77-2.81.34,2.79-.16,5.63-1.64,8.02l-5.09.32ZM18.88,16.05c.73-.74,1.46-1.52,2.13-2.33.24-.29.53-.62.68-.96l-1.89,2-.92,1.28Z"/>
  <path class="st7" d="M17.57,7.41c.1.1.14.32.03.42l-4.59,4c-.12.69-.48,1.13-1.23,1-.62-.1-.54-.68-.84-1-.33-.35-3.06-1.99-3.12-2.17-.12-.36.11-.69.49-.57,1.07.43,2.24,1.41,3.29,1.77.22.07.48.11.7.11l4.81-3.62c.12-.07.36-.03.46.06ZM11.94,11.42c-.53.06-.57,1.04.15.94.55-.08.45-1.01-.15-.94Z"/>
</svg>