<?xml version="1.0" encoding="UTF-8"?>
<svg id="Layer_1" xmlns="http://www.w3.org/2000/svg" version="1.1" viewBox="0 0 314.51 315.78">
  <!-- Generator: Adobe Illustrator 29.8.2, SVG Export Plug-In . SVG Version: 2.1.1 Build 3)  -->
  <defs>
    <style>
      .st0 {
        fill: #eaeaea;
      }

      .st1 {
        fill: #27aae1;
      }
    </style>
  </defs>
  <path class="st0" d="M127.67,70.96L-.21,159.84c-1.17-39.52,13.9-75.66,37.17-106.65l90.71,17.77Z"/>
  <path class="st0" d="M163.64,315.66c-39.36,1.52-77.13-12.42-107.45-36.96l15.55-90.88,91.91,127.85Z"/>
  <path class="st0" d="M76.71,117.9l-29.46,152.81C19.91,244.35,3.12,208.46,0,170.44l76.71-52.54Z"/>
  <path class="st0" d="M273.55,265.74c1.68,1.21-14.15,14.84-15.51,15.94-19.33,15.67-47.5,28.99-72.19,32.71-2,.3-8.37,1.4-9.7,1.28-4.75-.42-49.63-68.54-56.47-76.9l153.87,26.97Z"/>
  <path class="st0" d="M314.51,153.86c2.46,37.76-9.67,75.55-33.99,104.38l-91.9-15.5,125.89-88.88Z"/>
  <path class="st0" d="M197.61,77.94L48.25,46.97c-1.24-.21-2.82-.99-2.5-2.48.27-1.25,17.15-14.5,19.66-16.31C88.35,11.72,116.47.44,144.98.22l52.63,77.72Z"/>
  <path class="st1" d="M313.3,143.66l-75.71,52.14,29.47-150.8c20.66,20.24,37.35,47.61,43.79,76.07,1.67,7.39,3.51,14.95,2.45,22.59Z"/>
  <path class="st0" d="M241.57,127.88L156.65.04c37.03-.94,73.14,13.73,101.47,36.95l-16.55,90.89Z"/>
  <path class="st0" d="M112.83,173.7c-1.14-1.97,5.19-10.17,7.35-11.61l26.5,16.29,41.39-59.56c3.56-2.71,9.97,4.16,13.11,6.05l-49.2,71.84c-2.19.71-4.18-.85-6-1.72-10.98-5.26-21.98-15.76-33.16-21.28Z"/>
</svg>